<svg width="25" height="25" viewBox="0 0 25 25" fill="none" xmlns="http://www.w3.org/2000/svg">
<circle cx="12.5" cy="12.5" r="12.5" fill="#189EF2"/>
<path d="M12.9949 16.9917C11.7598 16.9917 10.5247 16.9683 9.28955 16.9991C8.34514 17.0228 7.2519 16.3509 7.0344 15.0715C6.98529 14.783 7.00126 14.4815 7.00126 14.1858C7.00126 12.6859 6.99282 11.1859 7.01331 9.68627C7.01963 9.21028 7.30823 8.86823 7.6872 8.62494C7.82126 8.53896 7.91826 8.46232 7.95291 8.28819C7.99599 8.07013 8.16378 7.94832 8.38068 7.94209C8.67139 7.93368 8.963 7.93181 9.25431 7.93929C9.50314 7.94552 9.68479 8.05673 9.7583 8.32308C9.76884 8.36077 9.83391 8.40532 9.87519 8.40687C10.0859 8.41796 10.2971 8.41796 10.5078 8.40687C10.5623 8.40345 10.6307 8.34457 10.6621 8.29068C10.8428 7.98508 11.013 7.67388 11.1853 7.36361C11.323 7.11595 11.5269 7.00038 11.8044 7.00162C12.9037 7.00567 14.0035 7.00972 15.1019 7.00162C15.4031 6.99913 15.6095 7.12623 15.7538 7.38666C15.918 7.68384 16.087 7.97854 16.246 8.27853C16.2987 8.37759 16.3608 8.41809 16.4714 8.4156C16.9485 8.40345 17.417 8.45672 17.8372 8.71434C18.5458 9.15047 18.9714 9.7735 18.9796 10.6482C18.9919 11.9716 18.9949 13.2961 18.9998 14.6182C19.0046 15.8568 18.221 16.6661 17.3679 16.9116C17.2042 16.9602 17.0351 16.9862 16.8648 16.9889C15.5748 16.9951 14.2849 16.9923 12.9949 16.9923V16.9917ZM13.432 15.587C15.2414 15.5842 16.7018 14.0974 16.7187 12.2849C16.7356 10.4922 15.3366 8.8673 13.4592 8.87415C11.6468 8.88038 10.2141 10.3694 10.2123 12.2588C10.2108 14.0849 11.6661 15.5898 13.432 15.587ZM9.5179 9.37756C9.52033 9.28392 9.50435 9.19075 9.47095 9.10367C9.43754 9.0166 9.3874 8.93744 9.32356 8.87099C9.25971 8.80453 9.1835 8.75216 9.09952 8.71704C9.01553 8.68193 8.92554 8.66479 8.83497 8.66668C8.44816 8.66668 8.16318 8.97197 8.16167 9.38784C8.16167 9.76166 8.47166 10.0782 8.83858 10.0769C8.92793 10.0784 9.01665 10.0613 9.09951 10.0267C9.18237 9.99213 9.25769 9.94073 9.32101 9.87553C9.38434 9.81034 9.43439 9.73269 9.4682 9.64716C9.50202 9.56163 9.51892 9.46996 9.5179 9.37756Z" fill="white"/>
<path d="M13.4513 14.5069C12.403 14.5886 11.2353 13.588 11.2462 12.231C11.2487 11.6251 11.4822 11.0448 11.896 10.6159C12.3098 10.1869 12.8706 9.94412 13.4564 9.94011C14.6223 9.93201 15.7158 10.9681 15.6782 12.3447C15.6486 13.3833 14.6286 14.6113 13.4513 14.5069Z" fill="white"/>
</svg>
