<svg width="14" height="17" viewBox="0 0 14 17" fill="none" xmlns="http://www.w3.org/2000/svg">
<g clip-path="url(#clip0_12_625)">
<path d="M0.998148 4.80017H12.9987C13.0095 4.95818 13.0312 5.12071 13.0312 5.28211C13.0312 8.53719 13.0312 11.7915 13.0312 15.0451C13.0312 16.1963 12.1875 16.9887 10.9401 16.9932C8.30709 17.0022 5.67446 17.0022 3.04223 16.9932C1.84905 16.9932 0.972839 16.2167 0.969224 15.1478C0.957171 11.799 0.969224 8.45142 0.969224 5.10266C0.971634 5.01124 0.987301 4.92094 0.998148 4.80017ZM7.06409 12.3419L9.42756 14.7325L10.5834 13.755L7.91739 11.4277L10.4966 9.08235L9.43479 7.99205L6.92669 10.4209C6.12642 9.62185 5.3382 8.83291 4.61626 8.11056L3.45562 9.13426L6.03964 11.4706L3.48334 13.6941L4.56805 14.8228L7.06409 12.3419Z" fill="#EB2547"/>
<path d="M0 2.85558V1.95265C0.825585 1.95265 1.62224 1.93798 2.4189 1.95942C2.80337 1.96958 3.09142 1.89734 3.19989 1.51698C3.55423 0.257388 4.40513 -0.112816 5.76825 0.0350395C6.99638 0.168222 8.25344 0.0734169 9.49724 0.0519722C9.85881 0.0452002 10.1324 0.105019 10.2312 0.46055C10.5928 1.75287 11.4762 2.19757 12.8454 1.95829C13.207 1.89396 13.595 1.94813 14 1.94813V2.8601L0 2.85558Z" fill="#EB2547"/>
</g>
<defs>
<clipPath id="clip0_12_625">
<rect width="14" height="17" fill="white"/>
</clipPath>
</defs>
</svg>
