<svg width="24" height="24" viewBox="0 0 24 24" fill="none" xmlns="http://www.w3.org/2000/svg">
<path d="M23.98 14.2076C23.98 15.6268 24.0318 17.0481 23.9671 18.4644C23.8851 20.2429 23.0361 21.6031 21.4762 22.4858C20.8958 22.816 20.2407 22.9923 19.5731 22.9978C18.7385 23.0064 17.9032 23.0158 17.0686 22.9978C15.7901 22.9718 14.8303 22.0135 14.8108 20.7325C14.7928 19.5286 14.8159 18.3247 14.7986 17.1216C14.7981 16.7805 14.7496 16.4411 14.6547 16.1135C14.3381 15.0832 13.4251 14.4214 12.4243 14.4575C11.4235 14.4935 10.5493 15.2329 10.3011 16.2575C10.2353 16.5462 10.2027 16.8414 10.2039 17.1374C10.1924 18.2779 10.2039 19.4192 10.1989 20.5597C10.1953 22.0444 9.24124 22.9949 7.75261 22.9985C7.0619 22.9985 6.37047 22.9884 5.67976 22.9985C3.11477 23.041 1.09587 20.9219 1.04047 18.4904C0.974278 15.6268 0.994423 12.7603 1.04047 9.89533C1.06206 8.4891 1.69233 7.31473 2.77445 6.41181C4.82212 4.70389 6.87603 3.00413 8.93617 1.31254C11.0723 -0.442902 13.9525 -0.4357 16.0872 1.32334C18.1315 3.00726 20.1715 4.69573 22.2072 6.38877C23.3462 7.33777 23.9491 8.56831 23.9786 10.0501C24.0059 11.4326 23.9843 12.8165 23.9843 14.1997L23.98 14.2076Z" fill="white"/>
</svg>
