<svg width="40" height="35" viewBox="0 0 40 35" fill="none" xmlns="http://www.w3.org/2000/svg">
<g clip-path="url(#clip0_2_15)">
<path d="M19.7206 34.991C25.0193 34.991 30.318 34.991 35.6167 34.991C37.933 34.991 39.3351 34.0691 39.373 32.5621C39.411 31.0551 37.9418 30.0068 35.5933 30.0068C24.9959 29.9977 14.3986 29.9977 3.80118 30.0068C2.20048 30.0068 0.903562 30.3954 0.281391 31.5883C-0.206415 32.5305 -0.104181 33.5427 0.938614 34.1753C1.72744 34.6457 2.68367 34.9177 3.6785 34.9548C9.02392 35.0271 14.3723 34.991 19.7206 34.991Z" fill="white"/>
<path d="M19.6739 1.4397C14.3256 1.4397 8.98018 1.4397 3.63183 1.4397C2.38457 1.4397 1.32133 1.6767 0.579402 2.48927C0.265349 2.83799 0.0715611 3.24284 0.0163474 3.66555C-0.0388663 4.08826 0.0463132 4.51488 0.263849 4.90507C0.481385 5.29526 0.824092 5.63614 1.25957 5.89551C1.69505 6.15487 2.20892 6.32413 2.75262 6.38732C3.28379 6.43519 3.81905 6.45028 4.35332 6.43245H34.9799C35.4181 6.43245 35.8562 6.44827 36.2915 6.41667C38.1171 6.28124 39.3673 5.22264 39.3264 3.87062C39.3334 3.54932 39.2557 3.23027 39.098 2.93292C38.9403 2.63557 38.7059 2.36616 38.4091 2.14105C38.1123 1.91595 37.7594 1.73986 37.3717 1.62356C36.984 1.50725 36.5698 1.45314 36.1542 1.46452C30.6598 1.43292 25.1683 1.46452 19.6739 1.46452V1.4397Z" fill="white"/>
<path d="M20.076 20.9962C23.8206 20.9962 27.5604 20.9962 31.2954 20.9962C32.9847 20.9962 34.0124 20.0159 33.9999 18.4607C33.9812 16.9531 32.9597 16 31.337 16C23.7866 16 16.2377 16 8.69007 16C6.99249 16 5.98559 16.9712 6.00016 18.5377C6.0168 20.0658 7.00706 20.9939 8.65679 20.9984C12.4576 21.003 16.2668 20.9962 20.076 20.9962Z" fill="white"/>
</g>
<defs>
<clipPath id="clip0_2_15">
<rect width="39.375" height="35" fill="white" transform="matrix(1 0 0 -1 0 35)"/>
</clipPath>
</defs>
</svg>
