<svg width="18" height="22" viewBox="0 0 18 22" fill="none" xmlns="http://www.w3.org/2000/svg">
<path d="M17.9015 19.2419C12.0315 19.2544 6.16144 19.2585 0 19.2419C0.365747 18.6329 0.508438 18.292 0.737533 18.028C2.22866 16.3152 2.91995 14.3426 2.73506 12.025C2.66105 10.9534 2.65233 9.87796 2.70894 8.8052C2.82349 6.06144 4.05738 4.34867 6.57742 3.48189C7.16021 3.27402 7.43151 3.02667 7.34108 2.3927C7.31684 2.18559 7.31684 1.97622 7.34108 1.76911C7.43553 0.711101 8.15898 -0.0143353 9.09345 0.000214964C10.0279 0.0147652 10.8478 0.733963 10.7915 1.79198C10.7353 2.88117 11.105 3.32391 12.0958 3.68767C14.4731 4.56276 15.4157 6.55199 15.4759 9.05048C15.5111 10.09 15.495 11.1306 15.4277 12.1684C15.2569 14.4154 15.9663 16.3152 17.3891 17.976C17.608 18.2613 17.8093 18.5605 17.992 18.8719L17.9015 19.2419Z" fill="white"/>
<path d="M7.33911 20.1689H10.7775C10.7936 21.2082 10.1747 21.9254 9.21808 21.9898C8.18917 22.0605 7.46773 21.3829 7.33911 20.1689Z" fill="white"/>
</svg>
