<svg width="23" height="23" viewBox="0 0 23 23" fill="none" xmlns="http://www.w3.org/2000/svg">
<g clip-path="url(#clip0_12_450)">
<path d="M6.88359 0H16.4519V5.03089C16.4519 5.58661 16.6954 5.83987 17.2304 5.83987H22.0802V6.09312C22.0802 11.0118 22.0802 15.9303 22.0802 20.8485C22.0802 22.146 21.2566 22.9994 20.0061 23H9.94731C10.7953 22.3809 11.5038 21.5784 12.024 20.6479C12.5442 19.7173 12.8638 18.6807 12.9607 17.6096H13.8254C15.3265 17.6096 16.8273 17.6096 18.3276 17.6096C18.6312 17.6096 18.8643 17.4932 18.9916 17.2027C19.194 16.7418 18.8632 16.2623 18.3438 16.2611C16.6341 16.2611 14.9242 16.2611 13.2141 16.2611H12.9561C12.8705 15.323 12.619 14.4094 12.214 13.5659H18.3542C18.6498 13.5659 18.8747 13.4369 18.9939 13.1567C19.1934 12.6946 18.8603 12.2193 18.3392 12.2187C16.11 12.2187 13.8807 12.2201 11.6512 12.2229C11.5571 12.2281 11.4631 12.2101 11.3769 12.1703C11.2908 12.1306 11.2149 12.0702 11.1556 11.9942C9.90509 10.5671 8.35732 9.73712 6.50012 9.56608C6.07384 9.52647 5.64179 9.56008 5.20973 9.56008C5.20334 9.52033 5.1989 9.48027 5.19643 9.44005C5.19643 6.94711 5.19064 4.45417 5.20105 1.96123C5.20105 1.33529 5.4567 0.798773 5.95296 0.441695C6.22827 0.243052 6.57126 0.144031 6.88359 0ZM13.6623 8.17618C12.0764 8.17618 10.4902 8.17618 8.9039 8.17618C8.54472 8.17618 8.26767 8.42643 8.2295 8.77271C8.21254 8.93805 8.25498 9.10407 8.34869 9.23895C8.4424 9.37383 8.58078 9.46809 8.73732 9.50366C8.82951 9.5204 8.92319 9.52664 9.01669 9.52227H18.3606C18.6561 9.52227 18.8771 9.38904 18.9968 9.10698C19.1882 8.65148 18.8626 8.17678 18.3571 8.17558C16.7916 8.17358 15.2267 8.17378 13.6623 8.17618Z" fill="white"/>
<path d="M5.84174 10.8713C6.99818 10.8707 8.12881 11.2261 9.09052 11.8925C10.0522 12.5589 10.8018 13.5064 11.2443 14.6149C11.6869 15.7235 11.8025 16.9434 11.5767 18.1202C11.3508 19.297 10.7935 20.3778 9.97535 21.2259C9.15721 22.074 8.11499 22.6511 6.98059 22.8843C5.8462 23.1175 4.67062 22.9963 3.60264 22.5361C2.53466 22.0758 1.62228 21.2971 0.980984 20.2986C0.339685 19.3 -0.00171007 18.1266 6.44115e-06 16.9267C0.00459055 15.3211 0.621713 13.7828 1.71642 12.648C2.81113 11.5133 4.29435 10.8745 5.84174 10.8713V10.8713ZM6.49416 16.2635C6.49416 15.5878 6.49416 14.9378 6.49416 14.2885C6.49416 13.8684 6.21884 13.5683 5.8481 13.5683C5.47735 13.5683 5.19857 13.8684 5.19741 14.2825C5.19471 15.1511 5.19471 16.0193 5.19741 16.887C5.19741 17.3245 5.46636 17.6072 5.88338 17.6072C6.43169 17.6114 6.98232 17.6102 7.52774 17.6072C7.93261 17.6072 8.22181 17.3263 8.22585 16.9417C8.2299 16.557 7.93666 16.2641 7.5208 16.2611C7.18822 16.2599 6.85739 16.2635 6.49416 16.2635Z" fill="white"/>
<path d="M17.7676 0.484253L21.6202 4.48112H17.7676V0.484253Z" fill="white"/>
</g>
<defs>
<clipPath id="clip0_12_450">
<rect width="22.08" height="23" fill="white"/>
</clipPath>
</defs>
</svg>
