<svg width="19" height="18" viewBox="0 0 19 18" fill="none" xmlns="http://www.w3.org/2000/svg">
<path d="M0.0244101 17.9928C0.0145128 17.8125 0.00191624 17.6799 0.00191624 17.5482C0.00191624 16.0151 -0.00618102 14.4819 0.0109143 12.9488C0.0116026 12.7318 0.0879933 12.5219 0.226855 12.3554C4.28115 8.2808 8.34265 4.21346 12.4113 0.153321C12.4725 0.0919955 12.5427 0.0396815 12.5913 0L18.0069 5.47514C17.8863 5.55149 17.7723 5.63777 17.6659 5.73308C13.6956 9.70123 9.72857 13.6724 5.76485 17.6465C5.65527 17.7656 5.52076 17.8589 5.37095 17.9197C5.22114 17.9806 5.05976 18.0074 4.89839 17.9983C3.44438 17.9802 1.99038 17.991 0.536371 17.991L0.0244101 17.9928ZM6.75998 14.0815L3.90146 11.2073C3.27163 11.844 2.60311 12.5096 1.94899 13.1914C1.71325 13.4358 1.75464 14.3241 1.99488 14.5685C2.46815 15.0495 2.94502 15.5266 3.42549 15.9998C3.67742 16.2478 4.54838 16.2865 4.80122 16.0403C5.47693 15.3811 6.13645 14.7065 6.75998 14.0815ZM6.09416 10.0052C6.23683 9.89894 6.37322 9.78451 6.50265 9.66244C8.57149 7.59901 10.6376 5.53317 12.7011 3.46492C12.7955 3.36932 12.9422 3.28454 12.9638 3.1673C12.9962 3.00317 12.9989 2.75877 12.9017 2.66498C12.8045 2.57118 12.5652 2.59103 12.3943 2.61087C12.3106 2.62079 12.2368 2.74072 12.163 2.81468C10.0744 4.89976 7.98635 6.98604 5.89891 9.07353C5.79783 9.16244 5.70889 9.26433 5.63439 9.37655C5.49042 9.6426 5.70097 9.99433 6.09416 10.0052Z" fill="#FFD600"/>
</svg>
