<svg width="28" height="33" viewBox="0 0 28 33" fill="none" xmlns="http://www.w3.org/2000/svg">
<path d="M14.2687 33.0009H13.7411C13.3805 32.8338 13.158 32.5454 12.9584 32.2156C11.8979 30.4607 10.8273 28.7114 9.74684 26.9674C9.63151 26.807 9.47331 26.6807 9.28956 26.6024C8.77512 26.3638 8.23428 26.1779 7.72599 25.9316C1.81908 23.0901 -1.27024 16.3343 0.492071 10.1389C2.5226 3.00509 9.66154 -1.25541 17.0529 0.330658C24.1065 1.8444 29.1006 8.53308 27.7912 15.9451C26.8705 21.1743 23.7011 24.702 18.6569 26.6222C18.5004 26.6864 18.3678 26.7961 18.277 26.9364C17.1936 28.6907 16.1181 30.4496 15.0505 32.213C14.8517 32.5454 14.631 32.8355 14.2687 33.0009ZM13.0024 8.08447C9.22097 8.93347 7.17549 11.2213 6.84044 15.0194C6.71908 15.0194 6.57662 15.0125 6.43855 15.0194C6.17722 15.0273 5.92947 15.1353 5.74858 15.3201C5.56769 15.505 5.4681 15.7519 5.47122 16.0079C5.47418 16.1346 5.50265 16.2594 5.55499 16.3753C5.60732 16.4911 5.6825 16.5957 5.7762 16.6831C5.86991 16.7704 5.98031 16.8388 6.10106 16.8843C6.22181 16.9298 6.35055 16.9515 6.47989 16.9482C11.4942 16.9482 16.5088 16.9482 21.5237 16.9482C21.6531 16.9519 21.7818 16.9305 21.9027 16.8852C22.0235 16.8399 22.1341 16.7717 22.2279 16.6845C22.3217 16.5973 22.397 16.4928 22.4494 16.3769C22.5018 16.2611 22.5303 16.1363 22.5333 16.0096C22.55 15.4758 22.1164 15.0427 21.5378 15.0186C21.4015 15.0125 21.2643 15.0186 21.1676 15.0186C20.8158 11.1981 18.7624 8.91453 15.0056 8.08361C14.9309 7.4292 14.5404 7.02709 13.9873 7.03828C13.4342 7.04948 13.0727 7.44298 13.0024 8.08447Z" fill="#EB2547"/>
<path d="M8.85645 14.9995C8.93471 13.1836 9.69539 11.7465 11.2546 10.7915C13.0397 9.698 14.8988 9.68508 16.6971 10.7554C18.2933 11.7025 19.0715 13.156 19.1542 14.9995H8.85645Z" fill="#EB2547"/>
</svg>
