<svg width="21" height="23" viewBox="0 0 21 23" fill="none" xmlns="http://www.w3.org/2000/svg">
<g clip-path="url(#clip0_12_459)">
<path d="M10.05 22.9757C8.26473 22.9757 6.4777 23.0386 4.696 22.9605C2.27329 22.8545 0.239096 20.8576 0.0248302 18.5007C-0.216108 15.8529 1.31576 13.5624 3.77759 12.9339C4.20792 12.8274 4.64949 12.7744 5.09253 12.7758C8.39632 12.7633 11.7004 12.7612 15.0048 12.7696C17.9636 12.7749 20.1916 15.0906 20.124 18.0796C20.0663 20.608 18.0001 22.8437 15.5009 22.9533C13.6863 23.0332 11.8655 22.9694 10.0473 22.9694L10.05 22.9757Z" fill="white"/>
<path d="M10.0161 11.4847C8.88929 11.489 7.78663 11.1553 6.84785 10.526C5.90907 9.89661 5.17645 8.99995 4.74285 7.94963C4.30925 6.89932 4.1942 5.74264 4.41227 4.62621C4.63035 3.50978 5.17173 2.48387 5.9678 1.67853C6.76387 0.873186 7.77878 0.324679 8.88388 0.10252C9.98899 -0.119639 11.1345 -0.00544198 12.1753 0.430642C13.216 0.866725 14.1052 1.60505 14.73 2.55204C15.3547 3.49903 15.6871 4.61204 15.6848 5.74998C15.6848 7.26922 15.0879 8.72638 14.025 9.80157C12.9622 10.8768 11.5204 11.4821 10.0161 11.4847Z" fill="white"/>
</g>
<defs>
<clipPath id="clip0_12_459">
<rect width="20.125" height="23" fill="white"/>
</clipPath>
</defs>
</svg>
