<svg width="30" height="29" viewBox="0 0 30 29" fill="none" xmlns="http://www.w3.org/2000/svg">
<g clip-path="url(#clip0_12_1026)">
<path d="M22.0602 21.2247C18.1031 25.1607 11.7308 25.0764 7.91249 21.1962C3.96959 17.1915 4.03728 10.8761 8.04477 6.9595C11.9265 3.16249 18.2984 3.24656 22.1031 7.10384C25.9428 10.9967 25.9629 17.3287 22.0602 21.2247ZM21.1768 20.3586C24.5229 17.0527 24.6255 11.6154 21.421 8.17788C18.0338 4.54345 12.3694 4.47452 8.89782 7.84347C5.39134 11.2467 5.39475 16.7566 8.62244 20.1673C12.0532 23.7915 17.7656 23.7798 21.1768 20.3586Z" fill="#EB2547"/>
<path d="M15.8899 14.1619L16.7395 15.0116C17.337 15.609 17.9372 16.2037 18.5322 16.8042C18.7995 17.0716 18.8548 17.355 18.7127 17.6128C18.5142 17.9707 18.0605 18.0474 17.7428 17.7599C17.5002 17.5402 17.2748 17.3006 17.043 17.0694L14.9969 15.0233L14.8254 15.1949C13.9806 16.0397 13.1358 16.8845 12.291 17.7293C12.0984 17.9219 11.8719 17.9902 11.6122 17.8975C11.3807 17.8137 11.2475 17.6384 11.2135 17.3943C11.1848 17.1758 11.2747 17.0024 11.4287 16.8491C12.2698 16.0113 13.1092 15.1718 13.947 14.3307L14.1152 14.1626C14.0478 14.0884 13.994 14.0235 13.9347 13.9641C13.1053 13.1348 12.2761 12.3056 11.4472 11.4767C11.0704 11.0999 11.1588 10.5529 11.62 10.3952C11.8929 10.3016 12.1185 10.3943 12.3135 10.5893L14.0286 12.3044L15.0022 13.278C15.1323 13.1479 15.2442 13.036 15.3564 12.9238C16.1085 12.1717 16.8606 11.4196 17.6127 10.6675C17.6541 10.6261 17.6952 10.585 17.7363 10.5439C18.0101 10.2954 18.3708 10.2994 18.6153 10.5525C18.8539 10.7992 18.8484 11.1695 18.5881 11.4346C18.1548 11.8766 17.7125 12.3103 17.2748 12.7479C16.8267 13.1961 16.3794 13.6449 15.9328 14.0943C15.9168 14.1157 15.9025 14.1383 15.8899 14.1619Z" fill="#EB2547"/>
</g>
<defs>
<clipPath id="clip0_12_1026">
<rect width="20" height="20" fill="white" transform="translate(15) rotate(45)"/>
</clipPath>
</defs>
</svg>
