<svg width="24" height="23" viewBox="0 0 24 23" fill="none" xmlns="http://www.w3.org/2000/svg">
<g clip-path="url(#clip0_16_1431)">
<path d="M0 21.4716V8.08553C0.0143941 8.05932 0.0265175 8.03203 0.0362492 8.00391C0.292499 7.06298 0.96 6.55172 1.95875 6.55112C7.95083 6.55112 13.9427 6.55112 19.9344 6.55112C21.1 6.55112 21.8881 7.31502 21.89 8.42997C21.89 9.3501 21.89 10.2702 21.89 11.1904V11.416H21.5981C20.5981 11.416 19.5981 11.4094 18.5981 11.416C17.6716 11.4097 16.7801 11.7558 16.1185 12.3788C15.457 13.0017 15.0792 13.8508 15.0678 14.7404C15.0564 15.63 15.4123 16.4877 16.0577 17.1261C16.7031 17.7645 17.5854 18.1316 18.5119 18.1471C19.5506 18.1633 20.59 18.1519 21.6287 18.1525H21.89V18.3866C21.89 19.3743 21.8879 20.3622 21.8838 21.3504C21.8818 21.3878 21.8763 21.4249 21.8675 21.4614C21.6981 22.4005 20.9463 22.9952 19.9194 22.9952H3.60687C3.02125 22.9952 2.435 23.0006 1.84937 22.9952C1.59873 22.9935 1.35105 22.9429 1.12135 22.8466C0.891659 22.7503 0.684735 22.6101 0.513124 22.4347C0.237499 22.1647 0.105625 21.825 0 21.4716Z" fill="white"/>
<path d="M11.9999 -2.9066e-07C12.6593 0.170423 12.7612 0.7201 12.9374 1.25297C12.6343 1.25297 12.3543 1.24637 12.0743 1.25297C11.4707 1.26585 10.8959 1.50334 10.4712 1.91535C10.0466 2.32736 9.80518 2.88165 9.79804 3.46128C9.78866 4.02956 9.79804 4.59784 9.79804 5.20152H9.53866C7.49991 5.20152 5.46116 5.20152 3.42241 5.20632C3.22866 5.20632 3.14804 5.14631 3.09304 4.97889C2.99741 4.68665 2.87429 4.40341 2.76866 4.11417C2.56679 3.56509 2.79929 3.08863 3.36866 2.89C6.09449 1.93947 8.82033 0.989934 11.5462 0.041402C11.5737 0.0292055 11.6003 0.0149625 11.6255 -0.00120163L11.9999 -2.9066e-07Z" fill="white"/>
<path d="M24 16.3055C23.8256 16.6901 23.5188 16.8185 23.0869 16.8137C21.5725 16.7975 20.0575 16.8191 18.5431 16.7999C17.3894 16.7855 16.4869 15.8626 16.5006 14.7597C16.508 14.2325 16.7303 13.7292 17.1199 13.3577C17.5095 12.9862 18.0353 12.7762 18.5844 12.7728C20.1469 12.7542 21.7094 12.7662 23.2688 12.7686C23.6469 12.7686 23.8681 12.9798 24 13.2979V16.3055ZM18.6069 15.4582C18.7913 15.4596 18.9689 15.3911 19.1009 15.2674C19.2329 15.1438 19.3088 14.9751 19.3119 14.7981C19.3122 14.7095 19.2943 14.6217 19.2593 14.5398C19.2242 14.4578 19.1727 14.3833 19.1077 14.3205C18.9763 14.1936 18.7979 14.122 18.6116 14.1215C18.5193 14.1212 18.4279 14.1384 18.3426 14.172C18.2572 14.2057 18.1796 14.2551 18.1142 14.3175C17.982 14.4436 17.9075 14.615 17.9069 14.7939C17.9089 14.9708 17.9835 15.1398 18.1146 15.2642C18.2457 15.3886 18.4226 15.4583 18.6069 15.4582V15.4582Z" fill="white"/>
<path d="M11.2062 5.18532C11.2062 4.58524 11.1893 4.00015 11.2112 3.41747C11.2287 2.93741 11.643 2.60076 12.1762 2.59896C13.418 2.59476 14.6605 2.59896 15.9024 2.59896C16.7299 2.59896 17.558 2.59896 18.3862 2.59896C19.0287 2.59896 19.4043 2.95901 19.4055 3.5753C19.4055 4.10637 19.4055 4.63745 19.4055 5.18592L11.2062 5.18532Z" fill="white"/>
</g>
<defs>
<clipPath id="clip0_16_1431">
<rect width="24" height="23" fill="white"/>
</clipPath>
</defs>
</svg>
